<?xml version="1.0" encoding="UTF-8"?>
<svg version="1.1" xmlns="http://www.w3.org/2000/svg" width="512" height="512">
<path d="M0 0 C52.90954054 -1.50071599 107.57022122 13.99396104 150.02832031 46.06201172 C150.93348389 46.73828613 150.93348389 46.73828613 151.85693359 47.42822266 C160.3617424 53.81759915 168.3579666 60.69095493 176.02832031 68.06201172 C176.62290039 68.62936035 177.21748047 69.19670898 177.83007812 69.78125 C186.72921054 78.3155134 194.71729028 87.13748559 202.02832031 97.06201172 C202.44919922 97.62210937 202.87007813 98.18220703 203.30371094 98.75927734 C242.07344184 150.39269777 257.44821122 216.22829995 248.63769531 279.88427734 C242.25362226 322.06053776 225.14116726 363.01692399 198.02832031 396.06201172 C197.59116699 396.60067871 197.15401367 397.1393457 196.70361328 397.69433594 C185.25413702 411.73722698 172.51472372 425.13080464 158.02832031 436.06201172 C157.50157715 436.4704834 156.97483398 436.87895508 156.43212891 437.29980469 C104.62212296 477.44476776 38.81492872 494.16282268 -25.97167969 486.06201172 C-77.32085557 478.71406567 -124.59315246 455.98203017 -161.97167969 420.06201172 C-162.56625977 419.49466309 -163.16083984 418.92731445 -163.7734375 418.34277344 C-172.67256991 409.80851004 -180.66064965 400.98653785 -187.97167969 391.06201172 C-188.39255859 390.50191406 -188.8134375 389.94181641 -189.24707031 389.36474609 C-228.01680122 337.73132567 -243.39157059 271.89572349 -234.58105469 208.23974609 C-228.12170063 165.56614314 -210.63485664 125.88789571 -183.97167969 92.06201172 C-183.54338867 91.51512695 -183.11509766 90.96824219 -182.67382812 90.40478516 C-170.38315132 74.86496012 -155.99778281 60.70361493 -139.97167969 49.06201172 C-138.84605174 48.21909963 -137.72105761 47.37534052 -136.59667969 46.53076172 C-114.38486869 30.04161668 -89.33444499 18.23524093 -62.97167969 10.06201172 C-62.17375 9.81225586 -61.37582031 9.5625 -60.55371094 9.30517578 C-41.05654908 3.33851462 -20.33954203 0.63970328 0 0 Z " fill="#3399FF" transform="translate(248.9716796875,11.93798828125)"/>
<path d="M0 0 C1.17949219 -0.01015137 2.35898437 -0.02030273 3.57421875 -0.03076172 C24.88831591 0.18059316 44.72257473 9.34197561 59.83203125 24.20703125 C80.88490504 45.94305601 83.53467912 72.14949462 83.1496582 100.95495605 C83.10810124 104.40150986 83.09033678 107.84818764 83.0703125 111.29492188 C83.02663557 118.00942832 82.96002587 124.7233964 82.875 131.4375 C84.18150513 131.40922119 84.18150513 131.40922119 85.5144043 131.38037109 C86.66851807 131.36570801 87.82263184 131.35104492 89.01171875 131.3359375 C90.72041138 131.30765869 90.72041138 131.30765869 92.46362305 131.27880859 C102.8434754 131.76166153 111.12085022 137.32391618 118.125 144.625 C121.70063197 148.98006128 123.22492719 154.12341937 124.875 159.4375 C125.205 160.4275 125.535 161.4175 125.875 162.4375 C125.97020494 163.96304564 126.0098804 165.49238592 126.01544189 167.02088928 C126.02115204 167.96136108 126.02686218 168.90183289 126.03274536 169.87080383 C126.03442215 171.4160096 126.03442215 171.4160096 126.03613281 172.99243164 C126.04109772 174.07896027 126.04606262 175.16548889 126.05117798 176.28494263 C126.0658137 179.8891869 126.07260534 183.49338711 126.078125 187.09765625 C126.08387699 189.6029002 126.08963472 192.10814414 126.09539795 194.61338806 C126.10456855 199.20077635 126.11086606 203.78815201 126.1138947 208.37554842 C126.11836497 215.10847734 126.13586373 221.84120218 126.1648953 228.57406908 C126.18921529 234.41904525 126.19684396 240.26395405 126.19857025 246.10897636 C126.20158988 248.58758083 126.209595 251.06618457 126.22275543 253.54475594 C126.2398959 257.02226105 126.23791546 260.4992759 126.23144531 263.97680664 C126.2406601 264.9927742 126.24987488 266.00874176 126.2593689 267.05549622 C126.19344518 278.42179417 123.05781934 287.73639872 115.375 296.1875 C114.55 296.93 113.725 297.6725 112.875 298.4375 C112.1325 299.118125 111.39 299.79875 110.625 300.5 C102.99687986 305.87435737 95.47003231 307.58708067 86.24850464 307.58467102 C85.48836945 307.58834771 84.72823426 307.5920244 83.94506466 307.5958125 C81.40200886 307.60681144 78.85899396 307.61068673 76.31591797 307.61450195 C74.49068574 307.6207695 72.66545479 307.62741656 70.84022522 307.63441467 C64.84922163 307.65542402 58.85821788 307.66581461 52.8671875 307.67578125 C50.80175895 307.67983007 48.73633053 307.68394703 46.67090225 307.68813133 C36.96554494 307.70717667 27.2601952 307.7214087 17.5548228 307.7297433 C6.36591333 307.73951153 -4.8227981 307.76582306 -16.01163781 307.80624419 C-24.66916542 307.83644319 -33.32663637 307.8512158 -41.98421562 307.85452431 C-47.15061925 307.85687058 -52.31681116 307.86577599 -57.48315811 307.89098549 C-62.34727906 307.91433726 -67.21104991 307.91847092 -72.07521248 307.90822411 C-73.85409653 307.90773035 -75.63299823 307.91400317 -77.41182899 307.92778015 C-91.03521508 308.02733452 -102.34177796 306.6647776 -112.75 297 C-119.91117673 289.27346721 -124.21646291 281.29489088 -124.27217102 270.58236694 C-124.27932632 269.63217682 -124.28648163 268.68198669 -124.29385376 267.70300293 C-124.29654266 266.67227661 -124.29923157 265.64155029 -124.30200195 264.57958984 C-124.30857315 263.48462189 -124.31514435 262.38965393 -124.32191467 261.26150513 C-124.34161239 257.64048184 -124.35330312 254.01949999 -124.36328125 250.3984375 C-124.36735678 249.15904041 -124.3714323 247.91964333 -124.37563133 246.64268875 C-124.39433087 240.75711003 -124.40889904 234.87154439 -124.4172433 228.9859432 C-124.42699994 222.21789473 -124.45328491 215.45017468 -124.49374419 208.6822418 C-124.52768842 202.79988987 -124.53940021 196.91764685 -124.54344749 191.03520584 C-124.54830528 188.5434611 -124.55989602 186.05171966 -124.57848549 183.56003952 C-124.60294701 180.06368953 -124.60189848 176.56818748 -124.5949707 173.07177734 C-124.60778076 172.05319641 -124.62059082 171.03461548 -124.63378906 169.98516846 C-124.54994751 158.30802798 -120.51429425 149.21207833 -112.5703125 140.7890625 C-105.55247622 134.17416419 -97.87995294 131.04690896 -88.25 131.3046875 C-87.21746094 131.3190686 -87.21746094 131.3190686 -86.1640625 131.33374023 C-84.48420185 131.35852984 -82.80454644 131.39663317 -81.125 131.4375 C-81.13388245 130.7360939 -81.14276489 130.03468781 -81.1519165 129.31202698 C-81.23289063 122.62155631 -81.29337724 115.93122723 -81.33224869 109.24037266 C-81.35290646 105.8025283 -81.38080991 102.36509697 -81.42675781 98.92749023 C-81.6797399 79.48231962 -81.51146044 61.97119718 -72.125 44.4375 C-71.64546875 43.48746094 -71.1659375 42.53742188 -70.671875 41.55859375 C-61.31388015 24.1372781 -46.20605772 12.09344336 -28.125 4.4375 C-27.17496094 4.02371094 -26.22492188 3.60992187 -25.24609375 3.18359375 C-16.91456556 0.19091717 -8.784175 0.05392584 0 0 Z " fill="#FDFEFF" transform="translate(255.125,102.5625)"/>
<path d="M0 0 C0.79019531 -0.01160156 1.58039063 -0.02320313 2.39453125 -0.03515625 C14.21498935 0.02288201 24.95935703 5.37984877 33.58203125 13.296875 C41.94637696 22.35966913 46.64183876 33.67513963 46.61352539 45.99145508 C46.61340454 47.10750122 46.61328369 48.22354736 46.61315918 49.37341309 C46.60804321 50.53538208 46.60292725 51.69735107 46.59765625 52.89453125 C46.59664917 53.97069702 46.59564209 55.04686279 46.59460449 56.15563965 C46.58938213 60.16627064 46.57542086 64.17688642 46.5625 68.1875 C46.541875 77.159375 46.52125 86.13125 46.5 95.375 C16.14 95.375 -14.22 95.375 -45.5 95.375 C-45.561875 86.526875 -45.62375 77.67875 -45.6875 68.5625 C-45.71481201 65.79125732 -45.74212402 63.02001465 -45.77026367 60.16479492 C-45.77903605 57.93669061 -45.7866782 55.70858145 -45.79296875 53.48046875 C-45.80831665 52.34919556 -45.82366455 51.21792236 -45.83947754 50.05236816 C-45.84411799 35.77678331 -41.68440083 22.99693779 -31.80078125 12.48046875 C-22.56831622 4.03174438 -12.43363894 -0.18254935 0 0 Z " fill="#359AFF" transform="translate(255.5,138.625)"/>
<path d="M0 0 C5.24273621 3.03751474 9.08101355 6.46059555 12.4375 11.5 C12.86933594 12.14324219 13.30117188 12.78648437 13.74609375 13.44921875 C17.56479409 20.38630414 17.66493166 28.81421294 16.4375 36.5 C14.87877436 41.52888126 13.0289778 46.80213524 8.4621582 49.79418945 C5.88974512 51.52965887 4.23181047 52.94777894 2.4375 55.5 C1.35795175 61.1906744 1.49297841 66.7903233 1.625 72.5625 C1.65131211 74.87917293 1.66603242 77.19500219 1.66487122 79.51182556 C1.66688153 80.9466651 1.68581358 82.3816181 1.72465515 83.81593323 C1.76734129 88.47350062 0.87390209 91.54198417 -1.5625 95.5 C-5.68690439 99.40733047 -9.30161204 101.24879023 -14.9375 101.875 C-20.6498072 101.28407167 -24.11406083 99.10090645 -27.9375 94.875 C-30.74897012 90.76592828 -30.65307469 87.74169726 -30.59765625 82.89453125 C-30.6013714 81.33788403 -30.60730253 79.78124082 -30.61523438 78.22460938 C-30.62576418 75.77263334 -30.62517365 73.32355687 -30.58666992 70.87182617 C-30.12933006 61.49440059 -30.12933006 61.49440059 -33.28271484 53.01904297 C-35.29404879 51.32184964 -37.35476126 49.92506213 -39.5625 48.5 C-45.78843141 40.22973291 -46.83930493 31.59231028 -45.5625 21.5 C-43.6099833 13.03909429 -39.02541698 6.68877122 -32.00390625 1.671875 C-21.91534119 -4.18688463 -10.63822271 -4.8464494 0 0 Z " fill="#3499FF" transform="translate(270.5625,272.5)"/>
</svg>
